<svg width="36" height="36" xmlns="http://www.w3.org/2000/svg"><g fill="none" fill-rule="evenodd"><path d="M18 36C8.059 36 0 27.941 0 18S8.059 0 18 0s18 8.059 18 18-8.059 18-18 18M5 18c0 7.18 5.82 13 13 13s13-5.82 13-13S25.18 5 18 5 5 10.82 5 18Z" fill="#FFF"/><g transform="translate(2 2)"><circle fill="#256606" cx="16" cy="16" r="16"/><path d="M21.215 8.977a1.965 1.965 0 0 1 .72 2.684l-6.387 11.061a1.965 1.965 0 0 1-3.099.4 1.952 1.952 0 0 1-.565-.57l-3.21-4.944a1.965 1.965 0 1 1 3.295-2.14l1.71 2.632 4.852-8.403a1.965 1.965 0 0 1 2.684-.72Z" fill="#F3F3F3"/></g></g></svg>