<svg width="36" height="36" xmlns="http://www.w3.org/2000/svg"><g fill="none" fill-rule="evenodd"><path d="M18 36C8.059 36 0 27.941 0 18S8.059 0 18 0s18 8.059 18 18-8.059 18-18 18M5 18c0 7.18 5.82 13 13 13s13-5.82 13-13S25.18 5 18 5 5 10.82 5 18Z" fill="#FFF"/><g transform="translate(2 2)"><circle fill="#AB0707" cx="16" cy="16" r="16"/><path d="M16.04 6.763c1.085 0 1.965.88 1.965 1.965v8.867a1.965 1.965 0 1 1-3.93 0V8.728c0-1.085.88-1.965 1.965-1.965Z" fill="#F3F3F3"/></g><circle fill="#FFF" cx="18" cy="25" r="2"/></g></svg>