<svg width="36" height="36" xmlns="http://www.w3.org/2000/svg"><g fill="none" fill-rule="evenodd"><path d="M0 18C0 8.059 8.059 0 18 0s18 8.059 18 18-8.059 18-18 18S0 27.941 0 18Zm5 0c0 7.18 5.82 13 13 13s13-5.82 13-13S25.18 5 18 5 5 10.82 5 18Z" fill="#FFF"/><g transform="translate(2 2)"><circle fill="#969696" cx="16" cy="16" r="16"/><path d="M20.566 10.05a1.49 1.49 0 0 1 .555 2.071l-5.166 8.598a1.598 1.598 0 0 1-2.144.575 1.49 1.49 0 0 1-.355-.274l-.06-.04a1.594 1.594 0 0 1-.385-.404l-2.477-3.729a1.533 1.533 0 0 1 .455-2.142 1.597 1.597 0 0 1 2.187.464l1.32 1.989 3.925-6.533a1.598 1.598 0 0 1 2.145-.574Z" fill="#FFF" fill-opacity=".4"/></g><g fill="#FFF" fill-rule="nonzero"><path d="M18.156 4C10.522 4 4.335 10.266 4.335 17.996s6.187 13.996 13.82 13.996c7.634 0 13.822-6.266 13.822-13.996S25.789 4 18.156 4Zm0 25.192c-6.106 0-11.057-5.013-11.057-11.196s4.95-11.197 11.057-11.197c6.106 0 11.056 5.014 11.056 11.197 0 6.183-4.95 11.196-11.056 11.196Z" fill-opacity=".201"/><g transform="translate(4 4)"><ellipse cx="5.889" cy="4.615" rx="1.382" ry="1.4"/><circle transform="rotate(-51.61 18.731 25.744)" cx="18.731" cy="25.744" r="1"/><ellipse cx="9.568" cy="2.321" rx="1.382" ry="1.4"/><circle transform="rotate(-51.61 14.5 26.624)" cx="14.5" cy="26.624" r="1"/><path d="M25.055 22.628a.898.898 0 0 1-.044.058c-.016.018-.03.038-.045.054a1.37 1.37 0 0 1-1.896.174c-.579-.465-.7-1.36-.225-1.966 3.792-4.849 2.985-11.89-1.801-15.729a10.917 10.917 0 0 0-7.179-2.415 1.389 1.389 0 0 1-1.419-1.36A1.392 1.392 0 0 1 13.789.005h.002a13.648 13.648 0 0 1 8.97 3.019c5.965 4.785 6.985 13.547 2.294 19.603Z"/><ellipse transform="rotate(-51.61 10.226 25.986)" cx="10.226" cy="25.986" rx="1.045" ry="1.042"/><ellipse cx="6.426" cy="23.905" rx="1.106" ry="1.12"/><ellipse transform="rotate(-51.61 3.557 20.635)" cx="3.557" cy="20.635" rx="1.184" ry="1.181"/><ellipse transform="rotate(-51.61 1.965 16.568)" cx="1.965" cy="16.568" rx="1.254" ry="1.25"/><ellipse transform="rotate(-51.61 1.845 12.195)" cx="1.845" cy="12.195" rx="1.323" ry="1.319"/><ellipse transform="rotate(-51.61 3.207 8.044)" cx="3.207" cy="8.044" rx="1.323" ry="1.319"/></g></g></g></svg>